<svg
  xmlns="http://www.w3.org/2000/svg"
  width="3333.333"
  height="640"
  viewBox="0 0 3333.333 640"
  fill="none"
>
  <rect width="3333.333" height="640" fill="var(--illustration-background)" />

  <path
    d="M0 514c164 0 164-68 328-68s164 68 328 68 164-68 328-68 164 68 328 68 164-68 328-68 164 68 328 68 164-68 328-68 164 68 329 68v126H0V514Z"
    fill="var(--illustration-secondary)"
    opacity="0.18"
  />

  <path
    d="M0 548c138 0 138-40 276-40s138 40 276 40 138-40 276-40 138 40 276 40 138-40 276-40 138 40 276 40 138-40 276-40 138 40 277 40v92H0v-92Z"
    fill="var(--illustration-secondary)"
    opacity="0.28"
  />

  <g stroke="var(--illustration-primary)" stroke-linecap="round" stroke-linejoin="round" stroke-width="6">
    <path d="M122 569h3089" />
    <path d="M180 569v-30" />
    <path d="M452 569v-30" />
    <path d="M724 569v-30" />
    <path d="M996 569v-30" />
    <path d="M1268 569v-30" />
    <path d="M1540 569v-30" />
    <path d="M1812 569v-30" />
    <path d="M2084 569v-30" />
    <path d="M2356 569v-30" />
    <path d="M2628 569v-30" />
    <path d="M2900 569v-30" />
  </g>

  <g transform="translate(260 174)">
    <rect x="0" y="72" width="712" height="272" rx="22" fill="var(--illustration-background)" stroke="var(--illustration-primary)" stroke-width="8" />
    <rect x="230" y="0" width="252" height="344" rx="24" fill="var(--illustration-background)" stroke="var(--illustration-primary)" stroke-width="8" />
    <rect x="320" y="42" width="72" height="72" rx="10" fill="var(--illustration-secondary)" stroke="var(--illustration-primary)" stroke-width="8" />
    <path d="M356 58v40M336 78h40" stroke="var(--illustration-background)" stroke-width="10" stroke-linecap="round" />
    <g fill="var(--illustration-secondary)" stroke="var(--illustration-primary)" stroke-width="6">
      <rect x="54" y="122" width="76" height="76" rx="10" />
      <rect x="170" y="122" width="76" height="76" rx="10" />
      <rect x="466" y="122" width="76" height="76" rx="10" />
      <rect x="582" y="122" width="76" height="76" rx="10" />
      <rect x="54" y="226" width="76" height="76" rx="10" />
      <rect x="170" y="226" width="76" height="76" rx="10" />
      <rect x="466" y="226" width="76" height="76" rx="10" />
      <rect x="582" y="226" width="76" height="76" rx="10" />
      <rect x="272" y="144" width="64" height="64" rx="10" />
      <rect x="376" y="144" width="64" height="64" rx="10" />
      <rect x="272" y="232" width="64" height="64" rx="10" />
      <rect x="376" y="232" width="64" height="64" rx="10" />
    </g>
    <path d="M311 344v-88c0-18 14-32 32-32h26c18 0 32 14 32 32v88" fill="var(--illustration-secondary)" stroke="var(--illustration-primary)" stroke-width="8" />
  </g>

  <g transform="translate(1144 230)">
    <path d="M0 292h406" stroke="var(--illustration-primary)" stroke-width="8" stroke-linecap="round" />
    <path d="M42 292V120c0-18 14-32 32-32h128c18 0 32 14 32 32v172" fill="var(--illustration-background)" stroke="var(--illustration-primary)" stroke-width="8" />
    <path d="M258 292V52c0-18 14-32 32-32h74c18 0 32 14 32 32v240" fill="var(--illustration-background)" stroke="var(--illustration-primary)" stroke-width="8" />
    <g fill="var(--illustration-secondary)" stroke="var(--illustration-primary)" stroke-width="6">
      <rect x="78" y="126" width="46" height="46" rx="8" />
      <rect x="152" y="126" width="46" height="46" rx="8" />
      <rect x="78" y="196" width="46" height="46" rx="8" />
      <rect x="152" y="196" width="46" height="46" rx="8" />
      <rect x="292" y="64" width="32" height="32" rx="6" />
      <rect x="340" y="64" width="32" height="32" rx="6" />
      <rect x="292" y="116" width="32" height="32" rx="6" />
      <rect x="340" y="116" width="32" height="32" rx="6" />
      <rect x="292" y="168" width="32" height="32" rx="6" />
      <rect x="340" y="168" width="32" height="32" rx="6" />
    </g>
    <path d="M106 292v-60c0-12 10-22 22-22h20c12 0 22 10 22 22v60" fill="var(--illustration-secondary)" stroke="var(--illustration-primary)" stroke-width="8" />
  </g>

  <g transform="translate(1804 334)">
    <rect x="84" y="70" width="194" height="112" rx="18" fill="var(--illustration-background)" stroke="var(--illustration-primary)" stroke-width="8" />
    <path d="M68 182h226l-22 58H90l-22-58Z" fill="var(--illustration-secondary)" stroke="var(--illustration-primary)" stroke-width="8" stroke-linejoin="round" />
    <circle cx="116" cy="246" r="24" fill="var(--illustration-background)" stroke="var(--illustration-primary)" stroke-width="8" />
    <circle cx="246" cy="246" r="24" fill="var(--illustration-background)" stroke="var(--illustration-primary)" stroke-width="8" />
    <path d="M278 110h58l42 48v82h-52" fill="var(--illustration-background)" stroke="var(--illustration-primary)" stroke-width="8" />
    <path d="M320 122v28M306 136h28" stroke="var(--illustration-secondary)" stroke-width="10" stroke-linecap="round" />
    <path d="M140 116v22M129 127h22" stroke="var(--illustration-secondary)" stroke-width="10" stroke-linecap="round" />
    <rect x="114" y="92" width="52" height="52" rx="10" stroke="var(--illustration-primary)" stroke-width="6" />
    <path d="M338 158h40" stroke="var(--illustration-primary)" stroke-width="6" stroke-linecap="round" />
  </g>

  <g transform="translate(2488 180)">
    <path d="M0 386h450" stroke="var(--illustration-primary)" stroke-width="8" stroke-linecap="round" />
    <path d="M74 386V92c0-18 14-32 32-32h238c18 0 32 14 32 32v294" fill="var(--illustration-background)" stroke="var(--illustration-primary)" stroke-width="8" />
    <path d="M172 0h106v92H172z" fill="var(--illustration-secondary)" stroke="var(--illustration-primary)" stroke-width="8" />
    <path d="M225 18v56M197 46h56" stroke="var(--illustration-background)" stroke-width="12" stroke-linecap="round" />
    <g fill="var(--illustration-secondary)" stroke="var(--illustration-primary)" stroke-width="6">
      <rect x="118" y="118" width="54" height="54" rx="8" />
      <rect x="197" y="118" width="54" height="54" rx="8" />
      <rect x="276" y="118" width="54" height="54" rx="8" />
      <rect x="118" y="196" width="54" height="54" rx="8" />
      <rect x="197" y="196" width="54" height="54" rx="8" />
      <rect x="276" y="196" width="54" height="54" rx="8" />
    </g>
    <path d="M201 386v-86c0-14 11-25 25-25h22c14 0 25 11 25 25v86" fill="var(--illustration-secondary)" stroke="var(--illustration-primary)" stroke-width="8" />
  </g>

  <g transform="translate(72 82)" stroke="var(--illustration-primary)" stroke-width="6" stroke-linecap="round" stroke-linejoin="round">
    <path d="M22 52c24-42 82-42 106 0" />
    <path d="M0 80c12-18 34-30 58-30s46 12 58 30" opacity="0.7" />
    <path d="M302 54c26-46 90-46 116 0" />
    <path d="M284 84c14-22 40-36 76-36 28 0 52 10 70 28" opacity="0.7" />
    <path d="M2734 50c24-42 82-42 106 0" />
    <path d="M2712 80c12-18 34-30 58-30s46 12 58 30" opacity="0.7" />
  </g>

  <g transform="translate(150 492)" stroke="var(--illustration-primary)" stroke-width="6" stroke-linecap="round" stroke-linejoin="round">
    <path d="M0 74c20-10 34-34 34-62" />
    <path d="M0 74c22-6 36-22 42-46" />
    <path d="M0 74c8-22 8-45 0-68" />
    <path d="M744 74c20-10 34-34 34-62" />
    <path d="M744 74c22-6 36-22 42-46" />
    <path d="M744 74c8-22 8-45 0-68" />
    <path d="M1474 74c20-10 34-34 34-62" />
    <path d="M1474 74c22-6 36-22 42-46" />
    <path d="M1474 74c8-22 8-45 0-68" />
    <path d="M2436 74c20-10 34-34 34-62" />
    <path d="M2436 74c22-6 36-22 42-46" />
    <path d="M2436 74c8-22 8-45 0-68" />
  </g>
</svg>
